<svg width="24" height="24" viewBox="0 0 24 24" fill="none" xmlns="http://www.w3.org/2000/svg">
<path d="M12.3453 2C9.84791 2 7.82338 4.02453 7.82338 6.52192C7.82338 9.0193 9.84791 11.0438 12.3453 11.0438C14.8427 11.0438 16.8672 9.0193 16.8672 6.52192C16.8672 4.02453 14.8427 2 12.3453 2Z" fill="white"/>
<path d="M7.52192 13.4555C5.02453 13.4555 3 15.4801 3 17.9774V19.4103C3 20.3186 3.65825 21.093 4.55466 21.2394C9.71426 22.0818 14.9763 22.0818 20.1359 21.2394C21.0323 21.093 21.6906 20.3186 21.6906 19.4103V17.9774C21.6906 15.4801 19.6661 13.4555 17.1687 13.4555H16.7576C16.5352 13.4555 16.3141 13.4907 16.1026 13.5598L15.0589 13.9005C13.2957 14.4763 11.3949 14.4763 9.63165 13.9005L8.58797 13.5598C8.37649 13.4907 8.15542 13.4555 7.93295 13.4555H7.52192Z" fill="white"/>
</svg>
