<svg width="33" height="33" viewBox="0 0 33 33" fill="none" xmlns="http://www.w3.org/2000/svg">
<path d="M16.5 0.248047C7.53 0.248047 0.25 7.52805 0.25 16.498C0.25 25.4681 7.53 32.7481 16.5 32.7481C25.47 32.7481 32.75 25.4681 32.75 16.498C32.75 7.52805 25.47 0.248047 16.5 0.248047ZM12.0963 23.4693L6.2625 17.6355C5.62875 17.0018 5.62875 15.978 6.2625 15.3443C6.89625 14.7105 7.92 14.7105 8.55375 15.3443L13.25 20.0243L24.43 8.8443C25.0638 8.21055 26.0875 8.21055 26.7213 8.8443C27.355 9.47805 27.355 10.5018 26.7213 11.1355L14.3875 23.4693C13.77 24.1031 12.73 24.1031 12.0963 23.4693Z" fill="#1DAA7C"/>
</svg>
