<svg width="44" height="44" viewBox="0 0 44 44" fill="none" xmlns="http://www.w3.org/2000/svg">
<g clip-path="url(#clip0_158_1937)">
<path d="M35.475 18.4073C34.2283 12.0823 28.6733 7.33398 22 7.33398C16.7017 7.33398 12.1 10.3407 9.80833 14.7407C4.29 15.3273 0 20.0023 0 25.6673C0 31.7356 4.93167 36.6673 11 36.6673H34.8333C39.8933 36.6673 44 32.5606 44 27.5007C44 22.6607 40.2417 18.7373 35.475 18.4073ZM25.6667 23.834V31.1673H18.3333V23.834H12.8333L21.3583 15.309C21.725 14.9423 22.2933 14.9423 22.66 15.309L31.1667 23.834H25.6667Z" fill="#222222"/>
</g>
<defs>
<clipPath id="clip0_158_1937">
<rect width="44" height="44" fill="white"/>
</clipPath>
</defs>
</svg>
