<svg width="24" height="24" viewBox="0 0 24 24" fill="none" xmlns="http://www.w3.org/2000/svg">
<g clip-path="url(#clip0_269_4170)">
<path d="M12.1725 6.4225L14.6325 8.8825C15.0225 9.2725 15.6525 9.2725 16.0425 8.8825C16.4325 8.4925 16.4325 7.8625 16.0425 7.4725L12.8725 4.2925C12.4825 3.9025 11.8525 3.9025 11.4625 4.2925L8.2925 7.4725C7.9025 7.8625 7.9025 8.4925 8.2925 8.8825C8.6825 9.2725 9.3125 9.2725 9.7025 8.8825L12.1725 6.4225ZM12.1725 16.7625L9.7125 14.3025C9.3225 13.9125 8.6925 13.9125 8.3025 14.3025C7.9125 14.6925 7.9125 15.3225 8.3025 15.7125L11.4725 18.8925C11.8625 19.2825 12.4925 19.2825 12.8825 18.8925L16.0525 15.7225C16.4425 15.3325 16.4425 14.7025 16.0525 14.3125C15.6625 13.9225 15.0325 13.9225 14.6425 14.3125L12.1725 16.7625Z" fill="#999999"/>
</g>
<defs>
<clipPath id="clip0_269_4170">
<rect width="24" height="24" fill="white"/>
</clipPath>
</defs>
</svg>
