<svg width="26" height="26" viewBox="0 0 26 26" fill="none" xmlns="http://www.w3.org/2000/svg">
<circle cx="13" cy="13" r="13" fill="white"/>
<g clip-path="url(#clip0_298_3449)">
<path d="M6.90625 16.5749V19.0937H9.425L16.9 11.6187L14.4625 9.09995L6.90625 16.5749ZM18.9313 9.6687C19.175 9.3437 19.175 8.93745 18.9313 8.6937L17.3063 7.0687C17.2453 6.99953 17.1702 6.94414 17.0862 6.9062C17.0021 6.86826 16.911 6.84863 16.8188 6.84863C16.7265 6.84863 16.6354 6.86826 16.5513 6.9062C16.4673 6.94414 16.3922 6.99953 16.3313 7.0687L15.1125 8.3687L17.6313 10.8062L18.9313 9.74995V9.6687Z" fill="#1EAF80"/>
</g>
<defs>
<clipPath id="clip0_298_3449">
<rect width="13" height="13" fill="white" transform="translate(6.5 6.5)"/>
</clipPath>
</defs>
</svg>
