<svg width="108" height="50" viewBox="0 0 108 50" fill="none" xmlns="http://www.w3.org/2000/svg">
<g clip-path="url(#clip0_606_4450)">
<path fill-rule="evenodd" clip-rule="evenodd" d="M13.7837 0C5.8224 2.46578 0 10.3433 0 19.6802C0 29.0171 5.8224 36.8947 13.7837 39.3604V0Z" fill="#FFCC00"/>
<path fill-rule="evenodd" clip-rule="evenodd" d="M28.0996 10.6396C36.0609 13.1054 41.8837 20.983 41.8837 30.3198C41.8837 39.6566 36.0609 47.5342 28.0996 50V10.6396Z" fill="#4F23E1"/>
<path fill-rule="evenodd" clip-rule="evenodd" d="M13.7842 5.05052C18.3983 3.31194 23.4849 3.31194 28.0989 5.05052V45.4805C23.4486 47.0058 18.4345 47.0058 13.7842 45.4805V5.05052Z" fill="#33BE95"/>
<path d="M64.1153 29.6659C63.8478 29.9341 63.4601 30.1487 62.9519 30.3096C62.4438 30.4705 61.7084 30.6448 60.7457 30.8325C59.2481 31.1275 58.2185 31.5029 57.6569 31.9588C57.0953 32.4147 56.8145 33.0717 56.8145 33.9299C56.8145 35.4048 57.6569 36.1423 59.3417 36.1423C60.0102 36.1423 60.632 36.0283 61.207 35.8004C61.7819 35.5724 62.2767 35.264 62.6912 34.8752C63.1057 34.4863 63.44 34.0304 63.6941 33.5075C63.9481 32.9846 64.0751 32.4281 64.0751 31.8381L64.1153 29.6659ZM64.4763 39.3603C64.3158 38.8508 64.2089 38.2608 64.1554 37.5904C63.5403 38.2876 62.7246 38.8441 61.7084 39.2598C60.6922 39.6754 59.5155 39.8833 58.1783 39.8833C55.9052 39.8833 54.2405 39.3804 53.1841 38.3748C52.1278 37.3692 51.5996 36.0618 51.5996 34.4528C51.5996 33.0315 51.8269 31.8985 52.2816 31.0537C52.7362 30.209 53.3646 29.5453 54.1669 29.0626C54.9692 28.5799 55.9253 28.2245 57.0351 27.9966C58.1449 27.7686 59.355 27.5608 60.6654 27.3731C61.9758 27.1854 62.8583 26.9373 63.313 26.6289C63.7676 26.3205 63.9949 25.8177 63.9949 25.1205C63.9949 24.4768 63.6941 23.974 63.0923 23.612C62.4906 23.25 61.6817 23.0689 60.6654 23.0689C59.462 23.0689 58.5995 23.3371 58.0781 23.8735C57.5566 24.4098 57.229 25.1205 57.0953 26.0054H52.2414C52.2682 24.9864 52.4353 24.0478 52.7429 23.1896C53.0504 22.3315 53.5452 21.594 54.2271 20.9772C54.909 20.3604 55.7982 19.8844 56.8947 19.5492C57.9911 19.214 59.3283 19.0464 60.9061 19.0464C62.4572 19.0464 63.7743 19.2207 64.8574 19.5693C65.9405 19.9179 66.8096 20.4208 67.4648 21.0778C68.12 21.7348 68.5947 22.5527 68.8889 23.5315C69.183 24.5104 69.3301 25.6166 69.3301 26.8502V39.3603H64.4763Z" fill="#262424"/>
<path d="M71.6162 39.3603V19.5693H76.5102V21.9426C76.938 21.2722 77.386 20.7493 77.854 20.3738C78.322 19.9984 78.8033 19.7101 79.2981 19.509C79.7928 19.3079 80.2943 19.1805 80.8024 19.1268C81.3105 19.0732 81.832 19.0464 82.3668 19.0464H83.0488V24.3964C82.5674 24.3159 82.086 24.2757 81.6047 24.2757C78.4223 24.2757 76.8311 25.8713 76.8311 29.0626V39.3603H71.6162Z" fill="#262424"/>
<path d="M95.685 26.3271H100.539V31.9587C100.539 33.0046 100.385 34.0035 100.078 34.9555C99.77 35.9075 99.2886 36.7523 98.6334 37.4898C97.9782 38.2272 97.1492 38.8105 96.1464 39.2396C95.1435 39.6686 93.9468 39.8832 92.5561 39.8832C91.112 39.8832 89.8818 39.6686 88.8656 39.2396C87.8494 38.8105 87.0137 38.2339 86.3585 37.5099C85.7033 36.7858 85.2286 35.9411 84.9344 34.9757C84.6403 34.0102 84.4932 32.9912 84.4932 31.9185V14.2192H89.6278V19.5692H100.539V23.27H89.6278V31.3956C89.6278 32.656 89.8618 33.6281 90.3298 34.3119C90.7978 34.9958 91.5666 35.3377 92.6364 35.3377C93.6793 35.3377 94.4482 35.0025 94.9429 34.332C95.4377 33.6616 95.685 32.7096 95.685 31.476V26.3271Z" fill="#262424"/>
<path d="M102.785 39.3602V19.5692H108V39.3602H102.785ZM102.785 17.1959V12.3286H108V17.1959H102.785Z" fill="#262424"/>
</g>
<defs>
<clipPath id="clip0_606_4450">
<rect width="108" height="50" fill="white"/>
</clipPath>
</defs>
</svg>
