<svg width="24" height="15" viewBox="0 0 24 15" fill="none" xmlns="http://www.w3.org/2000/svg">
<path d="M1 6.48323H0V8.51677H1V6.48323ZM23.707 8.21886C23.8945 8.02818 23.9998 7.76961 23.9998 7.5C23.9998 7.23039 23.8945 6.97182 23.707 6.78114L17.343 0.310408C17.2508 0.213296 17.1404 0.135836 17.0184 0.0825484C16.8964 0.0292604 16.7652 0.00121156 16.6324 3.839e-05C16.4996 -0.00113478 16.3679 0.0245912 16.245 0.0757154C16.1222 0.12684 16.0105 0.202338 15.9166 0.297805C15.8227 0.393273 15.7485 0.506797 15.6982 0.631755C15.6479 0.756712 15.6226 0.8906 15.6237 1.02561C15.6249 1.16061 15.6525 1.29403 15.7049 1.41808C15.7573 1.54213 15.8335 1.65433 15.929 1.74812L21.586 7.5L15.929 13.2519C15.8335 13.3457 15.7573 13.4579 15.7049 13.5819C15.6525 13.706 15.6249 13.8394 15.6237 13.9744C15.6226 14.1094 15.6479 14.2433 15.6982 14.3682C15.7485 14.4932 15.8227 14.6067 15.9166 14.7022C16.0105 14.7977 16.1222 14.8732 16.245 14.9243C16.3679 14.9754 16.4996 15.0011 16.6324 15C16.7652 14.9988 16.8964 14.9707 17.0184 14.9175C17.1404 14.8642 17.2508 14.7867 17.343 14.6896L23.707 8.21886ZM1 8.51677H23V6.48323H1V8.51677Z" fill="#222222"/>
</svg>
