<svg width="24" height="18" viewBox="0 0 24 18" fill="none" xmlns="http://www.w3.org/2000/svg">
<path d="M5.60027 18C2.50731 18 0 15.492 0 12.398C0 9.30502 2.50731 6.79703 5.60027 6.79703C5.60027 6.79703 5.57318 4.71615 3.88267 1.72122C3.69489 1.12113 4.02962 0.48208 4.63009 0.295378C5.05614 0.161362 5.50446 0.291628 5.79396 0.594862C9.68108 4.84642 11.2026 9.85023 11.2026 12.398C11.2026 15.492 8.69539 18 5.60027 18Z" fill="#999999"/>
<path d="M18.3976 18C15.3047 18 12.7974 15.492 12.7974 12.398C12.7974 9.30502 15.3047 6.79703 18.3976 6.79703C18.3976 6.79703 18.3705 4.71615 16.68 1.72122C16.4922 1.12113 16.827 0.48208 17.4275 0.295378C17.8535 0.161362 18.3018 0.291628 18.5913 0.594862C22.4784 4.84642 24.0001 9.85023 24.0001 12.398C24.0001 15.492 21.4927 18 18.3976 18Z" fill="#999999"/>
</svg>
