<svg width="33" height="33" viewBox="0 0 33 33" fill="none" xmlns="http://www.w3.org/2000/svg">
<g clip-path="url(#clip0_298_559)">
<path d="M27.2662 10.3147L24.145 7.19341C24.2412 6.61591 24.3925 6.07966 24.585 5.61216C24.7362 5.25466 24.7912 4.84216 24.7087 4.41591C24.53 3.42591 23.5675 2.73841 22.55 2.75216C20.3637 2.79341 18.425 3.86591 17.1875 5.50216H10.3125C6.1325 5.50216 2.75 8.88466 2.75 13.0647C2.75 16.1584 4.63375 23.3497 5.61 26.8697C5.94 28.0522 7.02625 28.8772 8.26375 28.8772H11C12.5125 28.8772 13.75 27.6397 13.75 26.1272H16.5C16.5 27.6397 17.7375 28.8772 19.25 28.8772H22.0137C23.2237 28.8772 24.2962 28.0797 24.6537 26.9109L26.3725 21.1909L29.315 20.2009C29.8787 20.0084 30.25 19.4859 30.25 18.8947V11.6897C30.25 10.9334 29.6312 10.3147 28.875 10.3147H27.2662ZM16.5 12.3772H12.375C11.6187 12.3772 11 11.7584 11 11.0022C11 10.2459 11.6187 9.62716 12.375 9.62716H16.5C17.2562 9.62716 17.875 10.2459 17.875 11.0022C17.875 11.7584 17.2562 12.3772 16.5 12.3772ZM22 15.1272C21.2437 15.1272 20.625 14.5084 20.625 13.7522C20.625 12.9959 21.2437 12.3772 22 12.3772C22.7562 12.3772 23.375 12.9959 23.375 13.7522C23.375 14.5084 22.7562 15.1272 22 15.1272Z" fill="#1EAF80"/>
</g>
<defs>
<clipPath id="clip0_298_559">
<rect width="33" height="33" fill="white"/>
</clipPath>
</defs>
</svg>
