<svg width="22" height="22" viewBox="0 0 22 22" fill="none" xmlns="http://www.w3.org/2000/svg">
<g clip-path="url(#clip0_298_3440)">
<path d="M19.1288 5.65381L10.3788 14.4038C10.0375 14.7451 9.48626 14.7451 9.14501 14.4038L6.66876 11.9276C6.32751 11.5863 6.32751 11.0351 6.66876 10.6938C7.01001 10.3526 7.56126 10.3526 7.90251 10.6938L9.75751 12.5488L17.8863 4.42006C18.2275 4.07881 18.7788 4.07881 19.12 4.42006C19.47 4.76131 19.47 5.31255 19.1288 5.65381ZM14.2988 2.89756C12.82 2.29381 11.14 2.08381 9.39001 2.39881C5.82876 3.03756 2.98501 5.90756 2.38126 9.46881C1.38376 15.3751 6.30126 20.4326 12.1725 19.6713C15.6375 19.2251 18.5425 16.6438 19.4525 13.2751C19.8025 11.9888 19.8375 10.7463 19.6363 9.58256C19.5225 8.88256 18.6563 8.6113 18.1488 9.11005C17.9475 9.31131 17.86 9.6088 17.9125 9.8888C18.105 11.0526 18.0175 12.2951 17.4575 13.6163C16.4425 15.9876 14.2375 17.7288 11.6738 17.9651C7.21126 18.3763 3.51001 14.5963 4.06126 10.1076C4.43751 7.01006 6.93126 4.49006 10.02 4.06131C11.5338 3.85131 12.9688 4.14006 14.1938 4.77006C14.535 4.94506 14.9463 4.8838 15.2175 4.61256C15.6375 4.19255 15.5325 3.48381 15.0075 3.21256C14.7713 3.10756 14.535 2.99381 14.2988 2.89756Z" fill="white"/>
</g>
<defs>
<clipPath id="clip0_298_3440">
<rect width="21" height="21" fill="white" transform="translate(0.5 0.5)"/>
</clipPath>
</defs>
</svg>
